# xmcd
#
# Track frame offsets:
#	150
#	19496
#	40560
#	63727
#	80565
#	105146
#	141830
#	166842
#	189336
#
# Disc length: 2710 seconds
#
# Revision: 1
# Processed by: cddbd v1.5.1PL0 Copyright (c) Steve Scherf et al.
# Submitted via: dBpowerAMP V4.0
#
DISCID=6c0a9409
DTITLE=Lefthand Freddy and the Aces - Urban Blues Adventures
DYEAR=2000
DGENRE=Blues
TTITLE0=Grocery Blues
TTITLE1=Down in St Louis
TTITLE2=Place to call home
TTITLE3=Bad shit, now shut up
TTITLE4=Keep on talking to me
TTITLE5=That train is going to take me yonder
TTITLE6=Stop your complaining woman
TTITLE7=Just wanna boogie
TTITLE8=Anny Mae
EXTD=
EXTT0=
EXTT1=
EXTT2=
EXTT3=
EXTT4=
EXTT5=
EXTT6=
EXTT7=
EXTT8=
PLAYORDER=
